<?xml version="1.0" encoding="UTF-8"?>
<svg id="Layer_1" xmlns="http://www.w3.org/2000/svg" viewBox="0 0 128.25 115.88">
  <defs>
    <style>
      .cls-1 {
        fill: #f7941d;
      }
    </style>
  </defs>
  <path class="cls-1" d="M26.35,64.08c0-.73,0-1.3,0-1.88,0-10.12,0-20.24,0-30.36,0-2.34.46-2.81,2.76-2.83,2.31-.02,4.63.02,6.94-.06.49-.02,1.13-.32,1.41-.71,4.18-5.75,9.81-8.55,16.89-8.54,7.12.02,14.25,0,21.37,0,.44,0,.88,0,1.5,0,0-.58,0-1.02,0-1.46,0-3.49-.01-6.99.01-10.48.01-1.78.61-2.35,2.4-2.36,4.31-.01,8.62-.02,12.93,0,1.99,0,3.05.97,3.13,2.97.09,2.13.09,4.26.03,6.4-.05,1.85-1.19,2.91-3.04,2.94-1.5.03-2.99-.01-4.49,0-.73,0-1.59-.24-1.58,1.05,0,1.26.85.91,1.51.93,3.22.07,6.45-.04,9.65.22,9.01.72,16.94,9.04,17.08,18.08.15,9.25.07,18.51.05,27.77,0,2.65-1.91,4.4-4.67,4.4-7.76.01-15.52,0-23.28,0-.54,0-1.07,0-1.8,0,0,.6,0,1.08,0,1.56,0,11.89,0,23.78,0,35.66,0,2.58-.49,3.07-3.11,3.07-2.13,0-4.27,0-6.4,0-2.49,0-2.97-.47-2.97-2.91,0-11.84,0-23.69,0-35.53q0-1.86-1.81-1.86c-17.97,0-35.94,0-53.9,0-1.94,0-3.23-.83-3.58-2.27-.49-2.02.9-3.77,3.13-3.81,2.68-.05,5.35-.01,8.03-.01.53,0,1.07,0,1.8,0ZM73.18,68.27c.43.04.65.07.87.07,12.07,0,24.14.02,36.21,0,1.94,0,2.85-.99,2.85-3.01,0-8.76.03-17.51-.01-26.27-.04-8.31-5.69-15.45-13.88-17.01-3.43-.66-7.04-.41-10.56-.52-2-.06-2-.01-2,1.95,0,6.99.02,13.97-.02,20.96-.01,2.5-1.68,4.37-4.05,4.72-2.18.33-4.43-1.05-5.07-3.22-.24-.81-.25-1.7-.26-2.55-.02-6.81-.03-13.61.01-20.42,0-1.11-.29-1.5-1.45-1.48-3.99.06-7.98.02-11.98.03-.36,0-.73.06-1.27.11.27.29.34.41.45.47,7.05,4.18,10.26,10.42,10.18,18.56-.09,8.62-.02,17.24-.02,25.86,0,.54,0,1.08,0,1.75ZM28.2,30.89c.62.52.91.79,1.22,1.03,7.09,5.66,14.18,11.33,21.27,16.99,1.68,1.34,2.69,1.33,4.36,0,4.51-3.59,9.01-7.18,13.51-10.78,2.88-2.3,2.84-2.29,1.39-5.8-.46-1.11-1.03-1.56-2.3-1.55-12.57.05-25.14.03-37.71.03-.44,0-.88.04-1.74.08ZM71.35,63.95c0-1.24-.07-2.41.02-3.57.08-1.03-.31-1.67-1.1-2.28-3.47-2.71-6.88-5.48-10.33-8.2-1.98-1.57-1.32-1.45-3.19,0-3.18,2.48-4.53,2.5-7.69.04-.29-.22-.62-.41-.86-.67-.61-.67-1.1-.46-1.72.04-5.69,4.58-11.4,9.12-17.1,13.68-.3.24-.57.52-1.05.96h43.02ZM74.64,70.18v38.48c2.38,0,4.64,0,6.9,0q1.8,0,1.81-1.74c0-11.7,0-23.39,0-35.09,0-.27.09-.6-.03-.8-.18-.32-.5-.81-.76-.81-2.62-.06-5.23-.04-7.91-.04ZM79.03,26.19h-.01c0,5.81,0,11.61,0,17.42,0,.54.03,1.1.16,1.62.34,1.34,1.6,2.23,2.94,2.14,1.38-.09,2.46-1.08,2.63-2.49.08-.63.06-1.27.06-1.9,0-8.62.02-17.24-.01-25.86,0-.95.3-1.27,1.25-1.24,2.09.06,4.17-.02,6.26.03,1.2.03,1.63-.5,1.61-1.63-.03-1.77-.06-3.54,0-5.31.04-1.26-.41-1.79-1.73-1.77-3.86.06-7.71.06-11.57-.01-1.22-.02-1.64.29-1.62,1.58.07,5.81.03,11.61.03,17.42ZM28.24,61.56c6.02-4.8,11.78-9.4,17.69-14.11-5.92-4.72-11.7-9.33-17.69-14.11v28.23ZM68.02,28.9c-3.93-5.03-8.85-7.51-14.95-7.33-5.64.17-10.2,2.63-13.8,7.33h28.75ZM43.43,68.35c8.85,0,17.69-.02,26.54.03,1.18,0,1.45-.39,1.41-1.49-.04-1.31-.93-.99-1.63-.99-17.47,0-34.93,0-52.4,0-.45,0-.97-.06-1.33.14-.37.21-.83.72-.79,1.06.04.42.47.93.87,1.16.34.2.88.1,1.33.1,8.67,0,17.33,0,26,0ZM71.26,38.29c-3.96,3.17-7.65,6.12-11.46,9.16,3.85,3.06,7.54,6,11.46,9.12v-18.28Z"/>
  <path class="cls-1" d="M83.84,44.5c-.9.57-1.45,1.19-1.9,1.13-.47-.06-1.14-.73-1.23-1.22-.15-.81.52-1.42,1.33-1.26.53.1.96.69,1.81,1.35Z"/>
</svg>