<?xml version="1.0" encoding="UTF-8"?>
<svg id="Layer_1" xmlns="http://www.w3.org/2000/svg" viewBox="0 0 128.25 115.88">
  <defs>
    <style>
      .cls-1 {
        fill: #244b5e;
      }
    </style>
  </defs>
  <path class="cls-1" d="M123.35,49.28c-.18.74-.36,1.47-.55,2.27,4.28,2,5.37,5.71,5.45,9.96.11,5.91-1.7,11.13-5.75,15.46-2.19,2.34-4.76,4-8.22,3.65-.4-.04-.9.32-1.26.61-1.14.92-2.23,1.89-3.33,2.85-.53.47-1.23.88-1.5,1.48-1.08,2.39-2.02,4.83-2.58,7.43.92-2.18,1.84-4.36,2.76-6.54.12.04.23.08.35.12-.49,1.38-.91,2.8-1.5,4.14-1.7,3.85-3.42,7.69-5.26,11.47-.56,1.14-1.48,2.13-2.37,3.07-1.65,1.76-3.62,2.58-6.13,2.04-2.84-.62-5.46-1.62-7.67-3.55-1.25-1.1-1.48-2.25-.29-3.51.66-.7,1.38-1.36,2.07-2.04.46-.45,1.11-.82,1.36-1.36,1.74-3.83,3.4-7.69,5.21-11.84.03,0,.62.09,1.4.19.91-2.14,2.56-4.05,2.29-6.59-.17-.08-.34-.17-.51-.25-.71,1.25-1.51,2.45-2.09,3.75-.63,1.41-1.41,1.73-2.66.8.79-2.87,3.59-4.93,3.3-8.4-.37-.16-.82-.36-1.27-.56-2.6-1.11-5.1-2.58-7.81-3.27-7.97-2.05-15.84-.64-23.65,1.27-2.66.65-5.11,1.63-7.23,3.53-1.46,1.31-3.32,2.29-5.15,3.08-6.74,2.92-13.17.67-16.78-5.75-2.41-4.3-3.34-9.02-3.36-13.86-.08-15.56,4.65-29.49,14.67-41.47,3.59-4.28,7.87-7.76,13.61-8.82,4.78-.88,8.8.63,11.72,4.43,1.47,1.91,2.83,4.19,3.35,6.5.98,4.31,3.41,7.65,6.03,10.94,4.4,5.51,10.01,9.57,16.02,13.12.52.31,1.2.41,1.82.5,2.08.28,4.26.19,6.22.81,4.76,1.5,9.43,3.27,14.1,5.02,1.16.43,2.01.5,2.93-.49.42-.45,1.24-.53,1.88-.77.12.19.24.38.36.57ZM72.36,30.96c-.06-4.46-.49-9.29-2.89-13.71-2.81-5.17-7.56-7.01-12.78-4.36-3.05,1.55-6.06,3.69-8.3,6.25-10.22,11.7-14.81,25.54-14.38,41.02.11,3.97.99,7.86,3.09,11.34,2.8,4.64,7.27,6.27,12.17,3.99,2.59-1.21,5.17-2.87,7.15-4.91,10.54-10.89,15.67-24.07,15.94-39.63ZM71.15,54.65c.49-.41.99-.81,1.46-1.24,1.9-1.75,3.87-2.49,6.54-1.48,4.36,1.64,8.9,2.82,13.29,4.42,2.61.95,5.09,2.26,7.57,3.52,1.55.79,1.99,2.01,1.19,3.73-1.13,2.44-2.82,4.32-5.01,5.82-1.1.75-2.09.9-3.43.43-8.63-3.06-17.5-4.22-26.63-3.13-1.75.21-3.02.83-3.45,2.21,5.56-.18,11.2-.72,16.8-.43,3.75.19,7.54,1.24,11.14,2.44,3.68,1.22,5.7,1.28,8.43-1.51,4.94-5.04,6.96-11.12,5.88-18.16-.23-1.52-.92-2.42-2.55-2.96-8.56-2.83-16.76-6.4-23.3-12.87-.86-.85-1.42-2.08-1.87-3.24-.53-1.38-.79-2.86-1.16-4.3.08,9.29-1.88,18.08-4.89,26.76ZM106.28,62.28c6.42,2.03,12.83,4.05,19.24,6.07.06-.18.12-.37.19-.55-4.51-1.68-9.03-3.36-13.54-5.04.03-.11.07-.22.1-.33,4.58,1.23,9.17,2.47,13.75,3.7.05-.16.1-.32.16-.48-4.69-1.75-9.38-3.49-14.07-5.24.03-.09.06-.17.09-.26,4.78,1.27,9.56,2.54,14.34,3.81.07-.25.15-.49.22-.74-4.07-1.45-8.14-2.91-12.2-4.36.03-.11.07-.21.1-.32,3.99,1.07,7.97,2.13,11.96,3.2.1-.29.2-.58.29-.87-4.03-1.45-8.06-2.9-12.09-4.36.03-.08.05-.16.08-.24,3.81,1.1,7.63,2.19,11.53,3.31-.14-3.59-1.59-5.64-4.61-6.68-4.11-1.42-8.23-2.8-12.34-4.19-1.38-.47-2.76-.92-4.48-1.5,2.98,6.48,1.52,12.39-.57,18.33.6-1.05,1.21-2.1,1.88-3.27ZM92.83,106.63c-2.8-3.11-2.75-3.84.07-6.46.66-.62,1.53-1.2,1.82-1.98,1.16-3.12,3.2-6.08,3.78-9.16.78-4.12,3.68-7.73,2.84-12.27-.21-1.12-.21-1.6-1.49-1.63-.22.71-.78,1.54-.6,2.15.65,2.22-.38,4.04-1.02,6-.53,1.64-.77,3.38-1.38,4.99-.56,1.47-1.44,2.81-2.19,4.2-.2.37-.65.71-.66,1.08-.12,2.81-1.53,4.75-3.66,6.53-3.18,2.65-2.64,4.78,1.31,6.26.23.09.48.13,1.17.32ZM96.06,59.91c-4.48-2-8.89-4.11-13.75-4.7-.1.35-.21.7-.31,1.05,4.69,1.22,9.37,2.43,14.06,3.65ZM110.92,65.53l-.17.55c3.84,1.18,7.68,2.36,11.53,3.54.06-.18.11-.36.17-.54-3.84-1.18-7.68-2.36-11.52-3.55Z"/>
  <path class="cls-1" d="M.19,21.61c4.14,1.05,8.26,2.14,12.41,3.15,1.06.26,1.63.72,1.41,1.85-.38,1.91.57,2.88,2.18,3.76,3.75,2.04,7.38,4.3,10.96,6.72-4.56-1.48-9.12-2.96-13.69-4.43-.62-.2-1.22-.49-1.85-.58-1.59-.24-2.22-1.12-1.99-2.67.19-1.27-.4-1.97-1.5-2.6C5.38,25.24,2.7,23.53,0,21.89c.06-.09.12-.18.19-.27Z"/>
  <path class="cls-1" d="M16.72,10.97c3.08,1.73,6.02,3.33,8.89,5.06.42.25.71,1.16.62,1.7-.2,1.21.06,2.07.93,2.95,1.55,1.55,2.97,3.23,4.21,5.23-.81-.49-1.63-.98-2.44-1.48-1.48-.92-2.93-1.92-4.45-2.77-1.25-.7-2-1.44-1.55-3.05.14-.5-.34-1.32-.76-1.79-1.72-1.93-3.52-3.79-5.45-5.84Z"/>
  <path class="cls-1" d="M13.99,49.44c-3.68-.92-6.87-1.72-10.06-2.51,0-.09,0-.17,0-.26,1.55-.14,3.1-.37,4.65-.38,1.81-.02,3.44-.11,3.37-2.7,4.33.78,8.38,1.51,12.44,2.24,0,.12,0,.23,0,.35-2.21.12-4.42.24-6.63.36-1.86.11-4.02-.26-3.79,2.9Z"/>
  <path class="cls-1" d="M57.36,30.89c-3.09-3.46-4.32-7.68-4.68-12.22-.03-.39.2-.9.48-1.19,4.26-4.46,12.78-6.46,16.07,2.47,2.26,6.12,2.04,12.44,1.11,18.97-8.46-3.09-13.26-9.12-15.23-17.66-.22.1-.44.2-.65.31.96,3.07,1.92,6.15,2.91,9.33Z"/>
  <path class="cls-1" d="M63.11,59.05c-2.5,4.63-5.39,8.88-9.5,12.06-1.86,1.44-4.04,2.64-6.26,3.38-3.96,1.33-6.92,0-9.06-3.61-1.9-3.21-2.48-6.8-2.72-10.44-.13-1.98-.02-3.97-.02-5.35.3,2.37.55,5.34,1.1,8.26.25,1.36.9,2.72,1.66,3.89,1.36,2.13,2.54,2.42,4.94,1.55,5.91-2.15,11.23-5.35,16.07-9.33,1.21-.99,2.27-1.33,3.8-.41ZM48.05,68.7c.18.25.35.49.53.74,2.63-1.88,5.26-3.77,7.89-5.65-.11-.15-.21-.3-.32-.46-2.7,1.79-5.4,3.58-8.1,5.37Z"/>
  <path class="cls-1" d="M57.68,36.56c4.41-.09,8.32,1.57,12.2,3.27.2.09.15.76.26,1.44-2.57-.82-4.86-1.56-7.26-2.33-.58,2.23.5,3.1,2.12,3.67,1.44.5,2.86,1.04,4.29,1.57-.05.19-.11.38-.16.58-.71-.24-1.41-.47-2.12-.72-.8-.27-1.59-.55-2.38-.84-.99-.37-1.98-.26-2.12.87-.06.51.71,1.41,1.31,1.66,1.42.6,2.96.91,4.91,1.47-1.59,3.58-3.12,7.01-4.78,10.74-3.63-1.23-7.09-2.27-10.43-3.58-2.11-.83-3.35-2.56-3.59-4.98.16.05.28.05.31.1.06.11.06.25.11.37,1.73,3.96,5.43,4.45,8.16,1.02,1.87-2.35,2.84-5.09,2.91-8.09.07-2.8-.9-5.06-3.74-6.21Z"/>
  <path class="cls-1" d="M59.21,43.2c-.2,2.4-.99,5.07-3.17,7.02-.67.6-1.98,1.08-2.74.83-.74-.25-1.48-1.44-1.63-2.33-.5-2.88.38-5.52,2.05-7.87.88-1.23,1.92-2.39,3.67-2.05,1.18.23,1.86,1.81,1.82,4.39ZM53.3,45.43c1.12.34,2.01.61,3.01.92.24-.66.42-1.17.67-1.86-1.07-.33-2-.62-3.01-.93-.24.67-.41,1.13-.67,1.88Z"/>
  <path class="cls-1" d="M52.22,62.43c-3.45,2.06-7.03,4.07-11.16,4.68-.07-.18-.15-.36-.22-.54,3.8-1.38,7.59-2.76,11.39-4.14Z"/>
  <path class="cls-1" d="M100.63,58.45c-5.55-2.2-11.09-4.41-16.64-6.61,5.94,1.15,11.64,2.95,16.93,5.84-.1.26-.2.51-.29.77Z"/>
</svg>